%TF.GenerationSoftware,KiCad,Pcbnew,9.0.2*%
%TF.CreationDate,2025-06-29T15:05:13-04:00*%
%TF.ProjectId,Kicadproject1,4b696361-6470-4726-9f6a-656374312e6b,rev?*%
%TF.SameCoordinates,Original*%
%TF.FileFunction,Legend,Top*%
%TF.FilePolarity,Positive*%
%FSLAX46Y46*%
G04 Gerber Fmt 4.6, Leading zero omitted, Abs format (unit mm)*
G04 Created by KiCad (PCBNEW 9.0.2) date 2025-06-29 15:05:13*
%MOMM*%
%LPD*%
G01*
G04 APERTURE LIST*
%ADD10C,0.150000*%
%ADD11C,0.101600*%
%ADD12C,0.120000*%
%ADD13C,0.127000*%
%ADD14C,0.100000*%
%ADD15C,0.504000*%
G04 APERTURE END LIST*
D10*
X66866667Y-74607200D02*
X67009524Y-74654819D01*
X67009524Y-74654819D02*
X67247619Y-74654819D01*
X67247619Y-74654819D02*
X67342857Y-74607200D01*
X67342857Y-74607200D02*
X67390476Y-74559580D01*
X67390476Y-74559580D02*
X67438095Y-74464342D01*
X67438095Y-74464342D02*
X67438095Y-74369104D01*
X67438095Y-74369104D02*
X67390476Y-74273866D01*
X67390476Y-74273866D02*
X67342857Y-74226247D01*
X67342857Y-74226247D02*
X67247619Y-74178628D01*
X67247619Y-74178628D02*
X67057143Y-74131009D01*
X67057143Y-74131009D02*
X66961905Y-74083390D01*
X66961905Y-74083390D02*
X66914286Y-74035771D01*
X66914286Y-74035771D02*
X66866667Y-73940533D01*
X66866667Y-73940533D02*
X66866667Y-73845295D01*
X66866667Y-73845295D02*
X66914286Y-73750057D01*
X66914286Y-73750057D02*
X66961905Y-73702438D01*
X66961905Y-73702438D02*
X67057143Y-73654819D01*
X67057143Y-73654819D02*
X67295238Y-73654819D01*
X67295238Y-73654819D02*
X67438095Y-73702438D01*
X67771429Y-73654819D02*
X68009524Y-74654819D01*
X68009524Y-74654819D02*
X68200000Y-73940533D01*
X68200000Y-73940533D02*
X68390476Y-74654819D01*
X68390476Y-74654819D02*
X68628572Y-73654819D01*
X69485714Y-73654819D02*
X69009524Y-73654819D01*
X69009524Y-73654819D02*
X68961905Y-74131009D01*
X68961905Y-74131009D02*
X69009524Y-74083390D01*
X69009524Y-74083390D02*
X69104762Y-74035771D01*
X69104762Y-74035771D02*
X69342857Y-74035771D01*
X69342857Y-74035771D02*
X69438095Y-74083390D01*
X69438095Y-74083390D02*
X69485714Y-74131009D01*
X69485714Y-74131009D02*
X69533333Y-74226247D01*
X69533333Y-74226247D02*
X69533333Y-74464342D01*
X69533333Y-74464342D02*
X69485714Y-74559580D01*
X69485714Y-74559580D02*
X69438095Y-74607200D01*
X69438095Y-74607200D02*
X69342857Y-74654819D01*
X69342857Y-74654819D02*
X69104762Y-74654819D01*
X69104762Y-74654819D02*
X69009524Y-74607200D01*
X69009524Y-74607200D02*
X68961905Y-74559580D01*
X101166667Y-82533200D02*
X101309524Y-82580819D01*
X101309524Y-82580819D02*
X101547619Y-82580819D01*
X101547619Y-82580819D02*
X101642857Y-82533200D01*
X101642857Y-82533200D02*
X101690476Y-82485580D01*
X101690476Y-82485580D02*
X101738095Y-82390342D01*
X101738095Y-82390342D02*
X101738095Y-82295104D01*
X101738095Y-82295104D02*
X101690476Y-82199866D01*
X101690476Y-82199866D02*
X101642857Y-82152247D01*
X101642857Y-82152247D02*
X101547619Y-82104628D01*
X101547619Y-82104628D02*
X101357143Y-82057009D01*
X101357143Y-82057009D02*
X101261905Y-82009390D01*
X101261905Y-82009390D02*
X101214286Y-81961771D01*
X101214286Y-81961771D02*
X101166667Y-81866533D01*
X101166667Y-81866533D02*
X101166667Y-81771295D01*
X101166667Y-81771295D02*
X101214286Y-81676057D01*
X101214286Y-81676057D02*
X101261905Y-81628438D01*
X101261905Y-81628438D02*
X101357143Y-81580819D01*
X101357143Y-81580819D02*
X101595238Y-81580819D01*
X101595238Y-81580819D02*
X101738095Y-81628438D01*
X102071429Y-81580819D02*
X102309524Y-82580819D01*
X102309524Y-82580819D02*
X102500000Y-81866533D01*
X102500000Y-81866533D02*
X102690476Y-82580819D01*
X102690476Y-82580819D02*
X102928572Y-81580819D01*
X103261905Y-81676057D02*
X103309524Y-81628438D01*
X103309524Y-81628438D02*
X103404762Y-81580819D01*
X103404762Y-81580819D02*
X103642857Y-81580819D01*
X103642857Y-81580819D02*
X103738095Y-81628438D01*
X103738095Y-81628438D02*
X103785714Y-81676057D01*
X103785714Y-81676057D02*
X103833333Y-81771295D01*
X103833333Y-81771295D02*
X103833333Y-81866533D01*
X103833333Y-81866533D02*
X103785714Y-82009390D01*
X103785714Y-82009390D02*
X103214286Y-82580819D01*
X103214286Y-82580819D02*
X103833333Y-82580819D01*
X62166667Y-82533200D02*
X62309524Y-82580819D01*
X62309524Y-82580819D02*
X62547619Y-82580819D01*
X62547619Y-82580819D02*
X62642857Y-82533200D01*
X62642857Y-82533200D02*
X62690476Y-82485580D01*
X62690476Y-82485580D02*
X62738095Y-82390342D01*
X62738095Y-82390342D02*
X62738095Y-82295104D01*
X62738095Y-82295104D02*
X62690476Y-82199866D01*
X62690476Y-82199866D02*
X62642857Y-82152247D01*
X62642857Y-82152247D02*
X62547619Y-82104628D01*
X62547619Y-82104628D02*
X62357143Y-82057009D01*
X62357143Y-82057009D02*
X62261905Y-82009390D01*
X62261905Y-82009390D02*
X62214286Y-81961771D01*
X62214286Y-81961771D02*
X62166667Y-81866533D01*
X62166667Y-81866533D02*
X62166667Y-81771295D01*
X62166667Y-81771295D02*
X62214286Y-81676057D01*
X62214286Y-81676057D02*
X62261905Y-81628438D01*
X62261905Y-81628438D02*
X62357143Y-81580819D01*
X62357143Y-81580819D02*
X62595238Y-81580819D01*
X62595238Y-81580819D02*
X62738095Y-81628438D01*
X63071429Y-81580819D02*
X63309524Y-82580819D01*
X63309524Y-82580819D02*
X63500000Y-81866533D01*
X63500000Y-81866533D02*
X63690476Y-82580819D01*
X63690476Y-82580819D02*
X63928572Y-81580819D01*
X64738095Y-81914152D02*
X64738095Y-82580819D01*
X64500000Y-81533200D02*
X64261905Y-82247485D01*
X64261905Y-82247485D02*
X64880952Y-82247485D01*
D11*
X112016190Y-57421979D02*
X112016190Y-57936026D01*
X112016190Y-57936026D02*
X112046428Y-57996502D01*
X112046428Y-57996502D02*
X112076666Y-58026741D01*
X112076666Y-58026741D02*
X112137142Y-58056979D01*
X112137142Y-58056979D02*
X112258095Y-58056979D01*
X112258095Y-58056979D02*
X112318571Y-58026741D01*
X112318571Y-58026741D02*
X112348809Y-57996502D01*
X112348809Y-57996502D02*
X112379047Y-57936026D01*
X112379047Y-57936026D02*
X112379047Y-57421979D01*
X113014047Y-58056979D02*
X112651190Y-58056979D01*
X112832618Y-58056979D02*
X112832618Y-57421979D01*
X112832618Y-57421979D02*
X112772142Y-57512693D01*
X112772142Y-57512693D02*
X112711666Y-57573169D01*
X112711666Y-57573169D02*
X112651190Y-57603407D01*
D10*
X132358667Y-71684700D02*
X132501524Y-71732319D01*
X132501524Y-71732319D02*
X132739619Y-71732319D01*
X132739619Y-71732319D02*
X132834857Y-71684700D01*
X132834857Y-71684700D02*
X132882476Y-71637080D01*
X132882476Y-71637080D02*
X132930095Y-71541842D01*
X132930095Y-71541842D02*
X132930095Y-71446604D01*
X132930095Y-71446604D02*
X132882476Y-71351366D01*
X132882476Y-71351366D02*
X132834857Y-71303747D01*
X132834857Y-71303747D02*
X132739619Y-71256128D01*
X132739619Y-71256128D02*
X132549143Y-71208509D01*
X132549143Y-71208509D02*
X132453905Y-71160890D01*
X132453905Y-71160890D02*
X132406286Y-71113271D01*
X132406286Y-71113271D02*
X132358667Y-71018033D01*
X132358667Y-71018033D02*
X132358667Y-70922795D01*
X132358667Y-70922795D02*
X132406286Y-70827557D01*
X132406286Y-70827557D02*
X132453905Y-70779938D01*
X132453905Y-70779938D02*
X132549143Y-70732319D01*
X132549143Y-70732319D02*
X132787238Y-70732319D01*
X132787238Y-70732319D02*
X132930095Y-70779938D01*
X133263429Y-70732319D02*
X133501524Y-71732319D01*
X133501524Y-71732319D02*
X133692000Y-71018033D01*
X133692000Y-71018033D02*
X133882476Y-71732319D01*
X133882476Y-71732319D02*
X134120572Y-70732319D01*
X134406286Y-70732319D02*
X135025333Y-70732319D01*
X135025333Y-70732319D02*
X134692000Y-71113271D01*
X134692000Y-71113271D02*
X134834857Y-71113271D01*
X134834857Y-71113271D02*
X134930095Y-71160890D01*
X134930095Y-71160890D02*
X134977714Y-71208509D01*
X134977714Y-71208509D02*
X135025333Y-71303747D01*
X135025333Y-71303747D02*
X135025333Y-71541842D01*
X135025333Y-71541842D02*
X134977714Y-71637080D01*
X134977714Y-71637080D02*
X134930095Y-71684700D01*
X134930095Y-71684700D02*
X134834857Y-71732319D01*
X134834857Y-71732319D02*
X134549143Y-71732319D01*
X134549143Y-71732319D02*
X134453905Y-71684700D01*
X134453905Y-71684700D02*
X134406286Y-71637080D01*
X81666667Y-82533200D02*
X81809524Y-82580819D01*
X81809524Y-82580819D02*
X82047619Y-82580819D01*
X82047619Y-82580819D02*
X82142857Y-82533200D01*
X82142857Y-82533200D02*
X82190476Y-82485580D01*
X82190476Y-82485580D02*
X82238095Y-82390342D01*
X82238095Y-82390342D02*
X82238095Y-82295104D01*
X82238095Y-82295104D02*
X82190476Y-82199866D01*
X82190476Y-82199866D02*
X82142857Y-82152247D01*
X82142857Y-82152247D02*
X82047619Y-82104628D01*
X82047619Y-82104628D02*
X81857143Y-82057009D01*
X81857143Y-82057009D02*
X81761905Y-82009390D01*
X81761905Y-82009390D02*
X81714286Y-81961771D01*
X81714286Y-81961771D02*
X81666667Y-81866533D01*
X81666667Y-81866533D02*
X81666667Y-81771295D01*
X81666667Y-81771295D02*
X81714286Y-81676057D01*
X81714286Y-81676057D02*
X81761905Y-81628438D01*
X81761905Y-81628438D02*
X81857143Y-81580819D01*
X81857143Y-81580819D02*
X82095238Y-81580819D01*
X82095238Y-81580819D02*
X82238095Y-81628438D01*
X82571429Y-81580819D02*
X82809524Y-82580819D01*
X82809524Y-82580819D02*
X83000000Y-81866533D01*
X83000000Y-81866533D02*
X83190476Y-82580819D01*
X83190476Y-82580819D02*
X83428572Y-81580819D01*
X84333333Y-82580819D02*
X83761905Y-82580819D01*
X84047619Y-82580819D02*
X84047619Y-81580819D01*
X84047619Y-81580819D02*
X83952381Y-81723676D01*
X83952381Y-81723676D02*
X83857143Y-81818914D01*
X83857143Y-81818914D02*
X83761905Y-81866533D01*
D12*
%TO.C,SW5*%
X71300000Y-71100000D02*
X70700000Y-71100000D01*
X71000000Y-70800000D02*
X71300000Y-71100000D01*
X70700000Y-71100000D02*
X71000000Y-70800000D01*
X69600000Y-72800000D02*
X69600000Y-61100000D01*
X65500000Y-72800000D02*
X69600000Y-72800000D01*
X65500000Y-61100000D02*
X69600000Y-61100000D01*
X64000000Y-67000000D02*
X63000000Y-67000000D01*
X63500000Y-67500000D02*
X63500000Y-66500000D01*
X61500000Y-72900000D02*
X57400000Y-72900000D01*
X57400000Y-72900000D02*
X57400000Y-70300000D01*
X57400000Y-68300000D02*
X57400000Y-65700000D01*
X57400000Y-63700000D02*
X57400000Y-61100000D01*
X57400000Y-61100000D02*
X61500000Y-61100000D01*
X66500000Y-67000000D02*
G75*
G02*
X60500000Y-67000000I-3000000J0D01*
G01*
X60500000Y-67000000D02*
G75*
G02*
X66500000Y-67000000I3000000J0D01*
G01*
%TO.C,SW2*%
X95515000Y-83015000D02*
X109485000Y-83015000D01*
X95515000Y-96985000D02*
X95515000Y-83015000D01*
X109485000Y-83015000D02*
X109485000Y-96985000D01*
X109485000Y-96985000D02*
X95515000Y-96985000D01*
%TO.C,SW4*%
X56515000Y-83015000D02*
X70485000Y-83015000D01*
X56515000Y-96985000D02*
X56515000Y-83015000D01*
X70485000Y-83015000D02*
X70485000Y-96985000D01*
X70485000Y-96985000D02*
X56515000Y-96985000D01*
D13*
%TO.C,U1*%
X112110000Y-78277500D02*
X112110000Y-61132500D01*
X114015000Y-80182500D02*
X127985000Y-80182500D01*
X116505000Y-59227500D02*
X116508728Y-58317228D01*
X117008728Y-57817500D02*
X125004000Y-57817500D01*
X125504000Y-58317500D02*
X125504000Y-59227500D01*
D14*
X127985000Y-59227500D02*
X114015000Y-59227500D01*
D13*
X127985000Y-59227500D02*
X114015000Y-59227500D01*
X129890000Y-78277500D02*
X129890000Y-61132500D01*
X112110000Y-61132500D02*
G75*
G02*
X114015000Y-59227500I1905001J-1D01*
G01*
X114015000Y-80182500D02*
G75*
G02*
X112110000Y-78277500I1J1905001D01*
G01*
X116508728Y-58317228D02*
G75*
G02*
X117008728Y-57817501I500018J-291D01*
G01*
X125004000Y-57817500D02*
G75*
G02*
X125504000Y-58317500I0J-500000D01*
G01*
X127985000Y-59227500D02*
G75*
G02*
X129890000Y-61132500I0J-1905000D01*
G01*
X129890000Y-78277500D02*
G75*
G02*
X127985000Y-80182500I-1905000J0D01*
G01*
D15*
X112302000Y-59468500D02*
G75*
G02*
X111798000Y-59468500I-252000J0D01*
G01*
X111798000Y-59468500D02*
G75*
G02*
X112302000Y-59468500I252000J0D01*
G01*
X113445000Y-60348500D02*
G75*
G02*
X112941000Y-60348500I-252000J0D01*
G01*
X112941000Y-60348500D02*
G75*
G02*
X113445000Y-60348500I252000J0D01*
G01*
D12*
%TO.C,SW3*%
X114515000Y-83015000D02*
X128485000Y-83015000D01*
X114515000Y-96985000D02*
X114515000Y-83015000D01*
X128485000Y-83015000D02*
X128485000Y-96985000D01*
X128485000Y-96985000D02*
X114515000Y-96985000D01*
%TO.C,SW1*%
X76015000Y-83015000D02*
X89985000Y-83015000D01*
X76015000Y-96985000D02*
X76015000Y-83015000D01*
X89985000Y-83015000D02*
X89985000Y-96985000D01*
X89985000Y-96985000D02*
X76015000Y-96985000D01*
%TD*%
M02*
