M48
; DRILL file {KiCad 9.0.2} date 2025-06-29T15:05:08-0400
; FORMAT={-:-/ absolute / metric / decimal}
; #@! TF.CreationDate,2025-06-29T15:05:08-04:00
; #@! TF.GenerationSoftware,Kicad,Pcbnew,9.0.2
; #@! TF.FileFunction,Plated,1,2,PTH
FMAT,2
METRIC
; #@! TA.AperFunction,Plated,PTH,ComponentDrill
T1C0.889
; #@! TA.AperFunction,Plated,PTH,ComponentDrill
T2C1.000
; #@! TA.AperFunction,Plated,PTH,ComponentDrill
T3C1.500
%
G90
G05
T1
X113.38Y-62.148
X113.38Y-64.688
X113.38Y-67.228
X113.38Y-69.769
X113.38Y-72.308
X113.38Y-74.849
X113.38Y-77.388
X128.62Y-62.148
X128.62Y-64.688
X128.62Y-67.228
X128.62Y-69.769
X128.62Y-72.308
X128.62Y-74.849
X128.62Y-77.388
T2
X56.5Y-64.5
X56.5Y-69.5
X71.0Y-64.5
X71.0Y-67.0
X71.0Y-69.5
T3
X59.69Y-87.46
X66.04Y-84.92
X79.19Y-87.46
X85.54Y-84.92
X98.69Y-87.46
X105.04Y-84.92
X117.69Y-87.46
X124.04Y-84.92
T3
G00X64.15Y-61.4
M15
G01X62.85Y-61.4
M16
G05
G00X64.15Y-72.6
M15
G01X62.85Y-72.6
M16
G05
M30
