%TF.GenerationSoftware,KiCad,Pcbnew,9.0.2*%
%TF.CreationDate,2025-06-29T15:05:13-04:00*%
%TF.ProjectId,Kicadproject1,4b696361-6470-4726-9f6a-656374312e6b,rev?*%
%TF.SameCoordinates,Original*%
%TF.FileFunction,Copper,L1,Top*%
%TF.FilePolarity,Positive*%
%FSLAX46Y46*%
G04 Gerber Fmt 4.6, Leading zero omitted, Abs format (unit mm)*
G04 Created by KiCad (PCBNEW 9.0.2) date 2025-06-29 15:05:13*
%MOMM*%
%LPD*%
G01*
G04 APERTURE LIST*
G04 Aperture macros list*
%AMRoundRect*
0 Rectangle with rounded corners*
0 $1 Rounding radius*
0 $2 $3 $4 $5 $6 $7 $8 $9 X,Y pos of 4 corners*
0 Add a 4 corners polygon primitive as box body*
4,1,4,$2,$3,$4,$5,$6,$7,$8,$9,$2,$3,0*
0 Add four circle primitives for the rounded corners*
1,1,$1+$1,$2,$3*
1,1,$1+$1,$4,$5*
1,1,$1+$1,$6,$7*
1,1,$1+$1,$8,$9*
0 Add four rect primitives between the rounded corners*
20,1,$1+$1,$2,$3,$4,$5,0*
20,1,$1+$1,$4,$5,$6,$7,0*
20,1,$1+$1,$6,$7,$8,$9,0*
20,1,$1+$1,$8,$9,$2,$3,0*%
G04 Aperture macros list end*
%TA.AperFunction,NonConductor*%
%ADD10C,0.200000*%
%TD*%
%ADD11C,0.150000*%
%TA.AperFunction,NonConductor*%
%ADD12C,0.150000*%
%TD*%
%TA.AperFunction,ComponentPad*%
%ADD13C,1.500000*%
%TD*%
%TA.AperFunction,ComponentPad*%
%ADD14R,2.000000X2.000000*%
%TD*%
%TA.AperFunction,ComponentPad*%
%ADD15C,2.000000*%
%TD*%
%TA.AperFunction,ComponentPad*%
%ADD16R,3.200000X2.000000*%
%TD*%
%TA.AperFunction,ComponentPad*%
%ADD17C,2.200000*%
%TD*%
%TA.AperFunction,SMDPad,CuDef*%
%ADD18RoundRect,0.152400X1.063600X0.609600X-1.063600X0.609600X-1.063600X-0.609600X1.063600X-0.609600X0*%
%TD*%
%TA.AperFunction,ComponentPad*%
%ADD19C,1.524000*%
%TD*%
%TA.AperFunction,SMDPad,CuDef*%
%ADD20RoundRect,0.152400X-1.063600X-0.609600X1.063600X-0.609600X1.063600X0.609600X-1.063600X0.609600X0*%
%TD*%
%TA.AperFunction,Conductor*%
%ADD21C,0.200000*%
%TD*%
G04 APERTURE END LIST*
D10*
X116500000Y-111500000D02*
X136000000Y-111500000D01*
X116500000Y-111500000D01*
X107000000Y-123000000D02*
X153500000Y-123000000D01*
X153500000Y-133000000D01*
X107000000Y-133000000D01*
X107000000Y-123000000D01*
D11*
G36*
X81567847Y-102658000D02*
G01*
X81211191Y-100987232D01*
X80555399Y-102698642D01*
X80453000Y-102698642D01*
X79778707Y-100987232D01*
X79430294Y-102658000D01*
X79041032Y-102658000D01*
X79602486Y-100056911D01*
X79788965Y-100056911D01*
X80504291Y-101954861D01*
X81164113Y-100056911D01*
X81348578Y-100056911D01*
X81957292Y-102658000D01*
X81567847Y-102658000D01*
G37*
G36*
X82623342Y-100757986D02*
G01*
X82623342Y-101972959D01*
X82638263Y-102120405D01*
X82678197Y-102229385D01*
X82738766Y-102309020D01*
X82819868Y-102365488D01*
X82925674Y-102401157D01*
X83063895Y-102414147D01*
X83188931Y-102403435D01*
X83305637Y-102371664D01*
X83416338Y-102318099D01*
X83514396Y-102247655D01*
X83583336Y-102173805D01*
X83627547Y-102095679D01*
X83627547Y-100757986D01*
X84016992Y-100757986D01*
X84016992Y-102658000D01*
X83627547Y-102658000D01*
X83627547Y-102399859D01*
X83574448Y-102467281D01*
X83489540Y-102535581D01*
X83364131Y-102605292D01*
X83229230Y-102658470D01*
X83101175Y-102688828D01*
X82977983Y-102698642D01*
X82798839Y-102686056D01*
X82650645Y-102650807D01*
X82527629Y-102595127D01*
X82425505Y-102519086D01*
X82345291Y-102425184D01*
X82285661Y-102311621D01*
X82247555Y-102174413D01*
X82233897Y-102008521D01*
X82233897Y-100757986D01*
X82623342Y-100757986D01*
G37*
G36*
X85967515Y-102658000D02*
G01*
X85278934Y-101705770D01*
X84938764Y-102007727D01*
X84938764Y-102658000D01*
X84549319Y-102658000D01*
X84549319Y-99975627D01*
X84938764Y-99975627D01*
X84938764Y-101641949D01*
X85779021Y-100757986D01*
X86233862Y-100757986D01*
X85530992Y-101478429D01*
X86389750Y-102658000D01*
X85967515Y-102658000D01*
G37*
G36*
X88018056Y-102658000D02*
G01*
X88018056Y-101460807D01*
X88003155Y-101322069D01*
X87961952Y-101212028D01*
X87897156Y-101124557D01*
X87807831Y-101057562D01*
X87696669Y-101016466D01*
X87556987Y-101001838D01*
X87418036Y-101019168D01*
X87273054Y-101073914D01*
X87144533Y-101154163D01*
X87054884Y-101242038D01*
X87054884Y-102658000D01*
X86665439Y-102658000D01*
X86665439Y-99975627D01*
X87054884Y-99975627D01*
X87054884Y-100962783D01*
X87114070Y-100899524D01*
X87196190Y-100841139D01*
X87305844Y-100787673D01*
X87482727Y-100734769D01*
X87663599Y-100717344D01*
X87834437Y-100730788D01*
X87979309Y-100768995D01*
X88103227Y-100830572D01*
X88209665Y-100916585D01*
X88292889Y-101020084D01*
X88354486Y-101142693D01*
X88393586Y-101288074D01*
X88407501Y-101460807D01*
X88407501Y-102658000D01*
X88018056Y-102658000D01*
G37*
G36*
X90078590Y-100733346D02*
G01*
X90274756Y-100778482D01*
X90440739Y-100850215D01*
X90581507Y-100948495D01*
X90692515Y-101066153D01*
X90772499Y-101201199D01*
X90822183Y-101356999D01*
X90839610Y-101538122D01*
X90831652Y-101648405D01*
X90808836Y-101746094D01*
X89226875Y-101746094D01*
X89241743Y-101912065D01*
X89283346Y-102049486D01*
X89348868Y-102163561D01*
X89437901Y-102258247D01*
X89571754Y-102343770D01*
X89729354Y-102395889D01*
X89917472Y-102414147D01*
X90082245Y-102402941D01*
X90228038Y-102370662D01*
X90358091Y-102318289D01*
X90474895Y-102245388D01*
X90638843Y-102489081D01*
X90532578Y-102557936D01*
X90362238Y-102624025D01*
X90204225Y-102664739D01*
X90031372Y-102689939D01*
X89841634Y-102698642D01*
X89639740Y-102682934D01*
X89457777Y-102637161D01*
X89291744Y-102561619D01*
X89138764Y-102454313D01*
X89000468Y-102311357D01*
X88900761Y-102146180D01*
X88838723Y-101954444D01*
X88816913Y-101730219D01*
X88831316Y-101540947D01*
X88841492Y-101499702D01*
X89237133Y-101499702D01*
X90452363Y-101499702D01*
X90435256Y-101366386D01*
X90386027Y-101252348D01*
X90304719Y-101153293D01*
X90186684Y-101070572D01*
X90042424Y-101019824D01*
X89864166Y-101001838D01*
X89697556Y-101018796D01*
X89553839Y-101067902D01*
X89427643Y-101149800D01*
X89331952Y-101251010D01*
X89268836Y-101366466D01*
X89237133Y-101499702D01*
X88841492Y-101499702D01*
X88872643Y-101373443D01*
X88939064Y-101224488D01*
X89030138Y-101091431D01*
X89146824Y-100972309D01*
X89303699Y-100859264D01*
X89470512Y-100780566D01*
X89649916Y-100733393D01*
X89845664Y-100717344D01*
X90078590Y-100733346D01*
G37*
G36*
X92442088Y-101078200D02*
G01*
X92311683Y-101020070D01*
X92185999Y-101001838D01*
X92056676Y-101019393D01*
X91937557Y-101072606D01*
X91824214Y-101167263D01*
X91739079Y-101283686D01*
X91687465Y-101415149D01*
X91669609Y-101565745D01*
X91669609Y-102658000D01*
X91280163Y-102658000D01*
X91280163Y-100757986D01*
X91669609Y-100757986D01*
X91669609Y-101057085D01*
X91766912Y-100930751D01*
X91876998Y-100837047D01*
X92000877Y-100771286D01*
X92141379Y-100731238D01*
X92302869Y-100717344D01*
X92418245Y-100724107D01*
X92604021Y-100749413D01*
X92442088Y-101078200D01*
G37*
G36*
X93479448Y-100036590D02*
G01*
X93572470Y-100051891D01*
X93650540Y-100097712D01*
X93703649Y-100164987D01*
X93721249Y-100243928D01*
X93703548Y-100324507D01*
X93650540Y-100392049D01*
X93572470Y-100437870D01*
X93479448Y-100453170D01*
X93386584Y-100437844D01*
X93309272Y-100392049D01*
X93257123Y-100324581D01*
X93239663Y-100243928D01*
X93257151Y-100163575D01*
X93309272Y-100096918D01*
X93386512Y-100051743D01*
X93479448Y-100036590D01*
G37*
G36*
X92639192Y-103399716D02*
G01*
X92639192Y-103097441D01*
X92907321Y-103082301D01*
X93081683Y-103044413D01*
X93189471Y-102992026D01*
X93268084Y-102912624D01*
X93318998Y-102801038D01*
X93338032Y-102646093D01*
X93338032Y-101042480D01*
X92901509Y-101042480D01*
X92901509Y-100757986D01*
X93727477Y-100757986D01*
X93727477Y-102639584D01*
X93708429Y-102834157D01*
X93655709Y-102990179D01*
X93573218Y-103115409D01*
X93460947Y-103215398D01*
X93324694Y-103289768D01*
X93148754Y-103347447D01*
X92923909Y-103385659D01*
X92639192Y-103399716D01*
G37*
G36*
X95535953Y-100733346D02*
G01*
X95732118Y-100778482D01*
X95898101Y-100850215D01*
X96038869Y-100948495D01*
X96149878Y-101066153D01*
X96229862Y-101201199D01*
X96279545Y-101356999D01*
X96296973Y-101538122D01*
X96289014Y-101648405D01*
X96266198Y-101746094D01*
X94684237Y-101746094D01*
X94699105Y-101912065D01*
X94740708Y-102049486D01*
X94806231Y-102163561D01*
X94895263Y-102258247D01*
X95029116Y-102343770D01*
X95186716Y-102395889D01*
X95374834Y-102414147D01*
X95539607Y-102402941D01*
X95685400Y-102370662D01*
X95815454Y-102318289D01*
X95932257Y-102245388D01*
X96096205Y-102489081D01*
X95989941Y-102557936D01*
X95819600Y-102624025D01*
X95661587Y-102664739D01*
X95488734Y-102689939D01*
X95298996Y-102698642D01*
X95097102Y-102682934D01*
X94915139Y-102637161D01*
X94749106Y-102561619D01*
X94596127Y-102454313D01*
X94457830Y-102311357D01*
X94358123Y-102146180D01*
X94296085Y-101954444D01*
X94274275Y-101730219D01*
X94288679Y-101540947D01*
X94298855Y-101499702D01*
X94694495Y-101499702D01*
X95909726Y-101499702D01*
X95892618Y-101366386D01*
X95843389Y-101252348D01*
X95762081Y-101153293D01*
X95644047Y-101070572D01*
X95499786Y-101019824D01*
X95321528Y-101001838D01*
X95154919Y-101018796D01*
X95011201Y-101067902D01*
X94885005Y-101149800D01*
X94789314Y-101251010D01*
X94726198Y-101366466D01*
X94694495Y-101499702D01*
X94298855Y-101499702D01*
X94330005Y-101373443D01*
X94396427Y-101224488D01*
X94487500Y-101091431D01*
X94604187Y-100972309D01*
X94761061Y-100859264D01*
X94927874Y-100780566D01*
X95107279Y-100733393D01*
X95303026Y-100717344D01*
X95535953Y-100733346D01*
G37*
G36*
X97824997Y-100733346D02*
G01*
X98021162Y-100778482D01*
X98187145Y-100850215D01*
X98327913Y-100948495D01*
X98438922Y-101066153D01*
X98518906Y-101201199D01*
X98568589Y-101356999D01*
X98586017Y-101538122D01*
X98578058Y-101648405D01*
X98555242Y-101746094D01*
X96973281Y-101746094D01*
X96988149Y-101912065D01*
X97029752Y-102049486D01*
X97095275Y-102163561D01*
X97184307Y-102258247D01*
X97318160Y-102343770D01*
X97475760Y-102395889D01*
X97663878Y-102414147D01*
X97828651Y-102402941D01*
X97974444Y-102370662D01*
X98104498Y-102318289D01*
X98221301Y-102245388D01*
X98385249Y-102489081D01*
X98278985Y-102557936D01*
X98108644Y-102624025D01*
X97950631Y-102664739D01*
X97777778Y-102689939D01*
X97588040Y-102698642D01*
X97386146Y-102682934D01*
X97204183Y-102637161D01*
X97038150Y-102561619D01*
X96885170Y-102454313D01*
X96746874Y-102311357D01*
X96647167Y-102146180D01*
X96585129Y-101954444D01*
X96563319Y-101730219D01*
X96577722Y-101540947D01*
X96587898Y-101499702D01*
X96983539Y-101499702D01*
X98198770Y-101499702D01*
X98181662Y-101366386D01*
X98132433Y-101252348D01*
X98051125Y-101153293D01*
X97933091Y-101070572D01*
X97788830Y-101019824D01*
X97610572Y-101001838D01*
X97443962Y-101018796D01*
X97300245Y-101067902D01*
X97174049Y-101149800D01*
X97078358Y-101251010D01*
X97015242Y-101366466D01*
X96983539Y-101499702D01*
X96587898Y-101499702D01*
X96619049Y-101373443D01*
X96685471Y-101224488D01*
X96776544Y-101091431D01*
X96893230Y-100972309D01*
X97050105Y-100859264D01*
X97216918Y-100780566D01*
X97396323Y-100733393D01*
X97592070Y-100717344D01*
X97824997Y-100733346D01*
G37*
G36*
X100346397Y-102658000D02*
G01*
X100346397Y-101549711D01*
X100331485Y-101346789D01*
X100293726Y-101210942D01*
X100240884Y-101123764D01*
X100160118Y-101058964D01*
X100046175Y-101017356D01*
X99887342Y-101001838D01*
X99754965Y-101018222D01*
X99608539Y-101071215D01*
X99477676Y-101150390D01*
X99385240Y-101242038D01*
X99385240Y-102658000D01*
X98995795Y-102658000D01*
X98995795Y-100757986D01*
X99262325Y-100757986D01*
X99385240Y-100998345D01*
X99471192Y-100898009D01*
X99574158Y-100821001D01*
X99696243Y-100765014D01*
X99841275Y-100729829D01*
X100014471Y-100717344D01*
X100209631Y-100733552D01*
X100365591Y-100778560D01*
X100490776Y-100849806D01*
X100590615Y-100948720D01*
X100666833Y-101080511D01*
X100717205Y-101253537D01*
X100735842Y-101478587D01*
X100735842Y-102658000D01*
X100346397Y-102658000D01*
G37*
G36*
X101692419Y-100036590D02*
G01*
X101785441Y-100051891D01*
X101863511Y-100097712D01*
X101916620Y-100164987D01*
X101934220Y-100243928D01*
X101916519Y-100324507D01*
X101863511Y-100392049D01*
X101785441Y-100437870D01*
X101692419Y-100453170D01*
X101601130Y-100437950D01*
X101523342Y-100392049D01*
X101470334Y-100324507D01*
X101452634Y-100243928D01*
X101470122Y-100163575D01*
X101522243Y-100096918D01*
X101599483Y-100051743D01*
X101692419Y-100036590D01*
G37*
G36*
X101479378Y-102658000D02*
G01*
X101479378Y-101042480D01*
X101178044Y-101042480D01*
X101178044Y-100757986D01*
X101868640Y-100757986D01*
X101868640Y-102658000D01*
X101479378Y-102658000D01*
G37*
G36*
X102855443Y-100757986D02*
G01*
X102855443Y-101972959D01*
X102870364Y-102120405D01*
X102910297Y-102229385D01*
X102970867Y-102309020D01*
X103051968Y-102365488D01*
X103157774Y-102401157D01*
X103295996Y-102414147D01*
X103421032Y-102403435D01*
X103537737Y-102371664D01*
X103648438Y-102318099D01*
X103746497Y-102247655D01*
X103815437Y-102173805D01*
X103859647Y-102095679D01*
X103859647Y-100757986D01*
X104249092Y-100757986D01*
X104249092Y-102658000D01*
X103859647Y-102658000D01*
X103859647Y-102399859D01*
X103806548Y-102467281D01*
X103721640Y-102535581D01*
X103596231Y-102605292D01*
X103461330Y-102658470D01*
X103333276Y-102688828D01*
X103210083Y-102698642D01*
X103030940Y-102686056D01*
X102882746Y-102650807D01*
X102759730Y-102595127D01*
X102657606Y-102519086D01*
X102577391Y-102425184D01*
X102517762Y-102311621D01*
X102479656Y-102174413D01*
X102465997Y-102008521D01*
X102465997Y-100757986D01*
X102855443Y-100757986D01*
G37*
G36*
X104637988Y-102549409D02*
G01*
X104775375Y-102229353D01*
X105001564Y-102341820D01*
X105171918Y-102398120D01*
X105300008Y-102414147D01*
X105441232Y-102401343D01*
X105538939Y-102367686D01*
X105605009Y-102316612D01*
X105645788Y-102246161D01*
X105660694Y-102149498D01*
X105642898Y-102066574D01*
X105586987Y-101986545D01*
X105482628Y-101906057D01*
X105312281Y-101824362D01*
X105067076Y-101721019D01*
X104950497Y-101662112D01*
X104862792Y-101602507D01*
X104788564Y-101536375D01*
X104728167Y-101462909D01*
X104686165Y-101386667D01*
X104661036Y-101305144D01*
X104652459Y-101216319D01*
X104665516Y-101102026D01*
X104702785Y-101004884D01*
X104763405Y-100921385D01*
X104849197Y-100849271D01*
X104987848Y-100778210D01*
X105156776Y-100733381D01*
X105363572Y-100717344D01*
X105521137Y-100729525D01*
X105719557Y-100770632D01*
X105968073Y-100848795D01*
X105857431Y-101161707D01*
X105695895Y-101069746D01*
X105542114Y-101018339D01*
X105392149Y-101001838D01*
X105261052Y-101016842D01*
X105157493Y-101059149D01*
X105103174Y-101102138D01*
X105072498Y-101149696D01*
X105062238Y-101203936D01*
X105076544Y-101288627D01*
X105118595Y-101361569D01*
X105191176Y-101426023D01*
X105302023Y-101482874D01*
X105580643Y-101593369D01*
X105745854Y-101669663D01*
X105867467Y-101747049D01*
X105953602Y-101825315D01*
X106017206Y-101916771D01*
X106056601Y-102024149D01*
X106070472Y-102151403D01*
X106056652Y-102276627D01*
X106017258Y-102383074D01*
X105953397Y-102474494D01*
X105863476Y-102553378D01*
X105756714Y-102613926D01*
X105628443Y-102659233D01*
X105474486Y-102688251D01*
X105289750Y-102698642D01*
X105063286Y-102682046D01*
X104847045Y-102632603D01*
X104637988Y-102549409D01*
G37*
D12*
X117741541Y-61869819D02*
X118408207Y-62869819D01*
X118408207Y-61869819D02*
X117741541Y-62869819D01*
X118789160Y-62869819D02*
X118789160Y-61869819D01*
X119217731Y-62584104D02*
X119693921Y-62584104D01*
X119122493Y-62869819D02*
X119455826Y-61869819D01*
X119455826Y-61869819D02*
X119789159Y-62869819D01*
X120312969Y-61869819D02*
X120503445Y-61869819D01*
X120503445Y-61869819D02*
X120598683Y-61917438D01*
X120598683Y-61917438D02*
X120693921Y-62012676D01*
X120693921Y-62012676D02*
X120741540Y-62203152D01*
X120741540Y-62203152D02*
X120741540Y-62536485D01*
X120741540Y-62536485D02*
X120693921Y-62726961D01*
X120693921Y-62726961D02*
X120598683Y-62822200D01*
X120598683Y-62822200D02*
X120503445Y-62869819D01*
X120503445Y-62869819D02*
X120312969Y-62869819D01*
X120312969Y-62869819D02*
X120217731Y-62822200D01*
X120217731Y-62822200D02*
X120122493Y-62726961D01*
X120122493Y-62726961D02*
X120074874Y-62536485D01*
X120074874Y-62536485D02*
X120074874Y-62203152D01*
X120074874Y-62203152D02*
X120122493Y-62012676D01*
X120122493Y-62012676D02*
X120217731Y-61917438D01*
X120217731Y-61917438D02*
X120312969Y-61869819D01*
X121932017Y-62869819D02*
X121932017Y-61869819D01*
X121932017Y-62346009D02*
X122503445Y-62346009D01*
X122503445Y-62869819D02*
X122503445Y-61869819D01*
X122979636Y-62346009D02*
X123312969Y-62346009D01*
X123455826Y-62869819D02*
X122979636Y-62869819D01*
X122979636Y-62869819D02*
X122979636Y-61869819D01*
X122979636Y-61869819D02*
X123455826Y-61869819D01*
X124455826Y-62869819D02*
X124122493Y-62393628D01*
X123884398Y-62869819D02*
X123884398Y-61869819D01*
X123884398Y-61869819D02*
X124265350Y-61869819D01*
X124265350Y-61869819D02*
X124360588Y-61917438D01*
X124360588Y-61917438D02*
X124408207Y-61965057D01*
X124408207Y-61965057D02*
X124455826Y-62060295D01*
X124455826Y-62060295D02*
X124455826Y-62203152D01*
X124455826Y-62203152D02*
X124408207Y-62298390D01*
X124408207Y-62298390D02*
X124360588Y-62346009D01*
X124360588Y-62346009D02*
X124265350Y-62393628D01*
X124265350Y-62393628D02*
X123884398Y-62393628D01*
X124884398Y-62346009D02*
X125217731Y-62346009D01*
X125360588Y-62869819D02*
X124884398Y-62869819D01*
X124884398Y-62869819D02*
X124884398Y-61869819D01*
X124884398Y-61869819D02*
X125360588Y-61869819D01*
X125789160Y-62774580D02*
X125836779Y-62822200D01*
X125836779Y-62822200D02*
X125789160Y-62869819D01*
X125789160Y-62869819D02*
X125741541Y-62822200D01*
X125741541Y-62822200D02*
X125789160Y-62774580D01*
X125789160Y-62774580D02*
X125789160Y-62869819D01*
X125789160Y-62488866D02*
X125741541Y-61917438D01*
X125741541Y-61917438D02*
X125789160Y-61869819D01*
X125789160Y-61869819D02*
X125836779Y-61917438D01*
X125836779Y-61917438D02*
X125789160Y-62488866D01*
X125789160Y-62488866D02*
X125789160Y-61869819D01*
D13*
%TO.P,SW5,*%
%TO.N,*%
X56500000Y-69500000D03*
X56500000Y-64500000D03*
D14*
%TO.P,SW5,A,A*%
%TO.N,Net-(U1-GPIO3{slash}MOSI)*%
X71000000Y-69500000D03*
D15*
%TO.P,SW5,B,B*%
%TO.N,Net-(U1-GPIO4{slash}MISO)*%
X71000000Y-64500000D03*
%TO.P,SW5,C,C*%
%TO.N,GND*%
X71000000Y-67000000D03*
D16*
%TO.P,SW5,MP*%
%TO.N,N/C*%
X63500000Y-72600000D03*
X63500000Y-61400000D03*
%TD*%
D17*
%TO.P,SW2,1,1*%
%TO.N,GND*%
X105040000Y-84920000D03*
%TO.P,SW2,2,2*%
%TO.N,Net-(U1-GPIO26{slash}ADC0{slash}A0)*%
X98690000Y-87460000D03*
%TD*%
%TO.P,SW4,1,1*%
%TO.N,GND*%
X66040000Y-84920000D03*
%TO.P,SW4,2,2*%
%TO.N,Net-(U1-GPIO28{slash}ADC2{slash}A2)*%
X59690000Y-87460000D03*
%TD*%
D18*
%TO.P,U1,1,GPIO26/ADC0/A0*%
%TO.N,Net-(U1-GPIO26{slash}ADC0{slash}A0)*%
X112545000Y-62148500D03*
D19*
X113380000Y-62148500D03*
D18*
%TO.P,U1,2,GPIO27/ADC1/A1*%
%TO.N,Net-(U1-GPIO27{slash}ADC1{slash}A1)*%
X112545000Y-64688500D03*
D19*
X113380000Y-64688500D03*
D18*
%TO.P,U1,3,GPIO28/ADC2/A2*%
%TO.N,Net-(U1-GPIO28{slash}ADC2{slash}A2)*%
X112545000Y-67228500D03*
D19*
X113380000Y-67228500D03*
D18*
%TO.P,U1,4,GPIO29/ADC3/A3*%
%TO.N,Net-(U1-GPIO29{slash}ADC3{slash}A3)*%
X112545000Y-69768500D03*
D19*
X113380000Y-69768500D03*
D18*
%TO.P,U1,5,GPIO6/SDA*%
%TO.N,unconnected-(U1-GPIO6{slash}SDA-Pad5)*%
X112545000Y-72308500D03*
D19*
X113380000Y-72308500D03*
D18*
%TO.P,U1,6,GPIO7/SCL*%
%TO.N,unconnected-(U1-GPIO7{slash}SCL-Pad6)*%
X112545000Y-74848500D03*
D19*
X113380000Y-74848500D03*
D18*
%TO.P,U1,7,GPIO0/TX*%
%TO.N,unconnected-(U1-GPIO0{slash}TX-Pad7)*%
X112545000Y-77388500D03*
D19*
X113380000Y-77388500D03*
%TO.P,U1,8,GPIO1/RX*%
%TO.N,unconnected-(U1-GPIO1{slash}RX-Pad8)*%
X128620000Y-77388500D03*
D20*
X129455000Y-77388500D03*
D19*
%TO.P,U1,9,GPIO2/SCK*%
%TO.N,unconnected-(U1-GPIO2{slash}SCK-Pad9)*%
X128620000Y-74848500D03*
D20*
X129455000Y-74848500D03*
D19*
%TO.P,U1,10,GPIO4/MISO*%
%TO.N,Net-(U1-GPIO4{slash}MISO)*%
X128620000Y-72308500D03*
D20*
X129455000Y-72308500D03*
D19*
%TO.P,U1,11,GPIO3/MOSI*%
%TO.N,Net-(U1-GPIO3{slash}MOSI)*%
X128620000Y-69768500D03*
D20*
X129455000Y-69768500D03*
D19*
%TO.P,U1,12,3V3*%
%TO.N,unconnected-(U1-3V3-Pad12)*%
X128620000Y-67228500D03*
D20*
X129455000Y-67228500D03*
D19*
%TO.P,U1,13,GND*%
%TO.N,GND*%
X128620000Y-64688500D03*
D20*
X129455000Y-64688500D03*
D19*
%TO.P,U1,14,VBUS*%
%TO.N,+5V*%
X128620000Y-62148500D03*
D20*
X129455000Y-62148500D03*
%TD*%
D17*
%TO.P,SW3,1,1*%
%TO.N,GND*%
X124040000Y-84920000D03*
%TO.P,SW3,2,2*%
%TO.N,Net-(U1-GPIO29{slash}ADC3{slash}A3)*%
X117690000Y-87460000D03*
%TD*%
%TO.P,SW1,1,1*%
%TO.N,GND*%
X85540000Y-84920000D03*
%TO.P,SW1,2,2*%
%TO.N,Net-(U1-GPIO27{slash}ADC1{slash}A1)*%
X79190000Y-87460000D03*
%TD*%
D21*
%TO.N,GND*%
X80128500Y-70831500D02*
X66040000Y-84920000D01*
X113884100Y-61085500D02*
X114781000Y-61982400D01*
X114781000Y-69934600D02*
X113884100Y-70831500D01*
X76914500Y-61085500D02*
X113884100Y-61085500D01*
X114781000Y-61982400D02*
X114781000Y-69934600D01*
X71000000Y-67000000D02*
X76914500Y-61085500D01*
X113884100Y-70831500D02*
X80128500Y-70831500D01*
%TO.N,Net-(U1-GPIO3{slash}MOSI)*%
X127557000Y-70831500D02*
X128620000Y-69768500D01*
X127557000Y-83384314D02*
X127557000Y-70831500D01*
X121818314Y-86321000D02*
X124620314Y-86321000D01*
X115387314Y-92752000D02*
X121818314Y-86321000D01*
X58906430Y-92752000D02*
X115387314Y-92752000D01*
X56818000Y-90663570D02*
X58906430Y-92752000D01*
X124620314Y-86321000D02*
X127557000Y-83384314D01*
X56818000Y-83682000D02*
X56818000Y-90663570D01*
X71000000Y-69500000D02*
X56818000Y-83682000D01*
%TO.N,*%
X64500000Y-90000000D02*
X64000000Y-90000000D01*
%TO.N,Net-(U1-GPIO27{slash}ADC1{slash}A1)*%
X80480186Y-64688500D02*
X113545000Y-64688500D01*
X58289000Y-88040314D02*
X58289000Y-86879686D01*
X59109686Y-88861000D02*
X58289000Y-88040314D01*
X60270314Y-88861000D02*
X59109686Y-88861000D01*
X58289000Y-86879686D02*
X80480186Y-64688500D01*
X79190000Y-87460000D02*
X61671314Y-87460000D01*
X61671314Y-87460000D02*
X60270314Y-88861000D01*
%TO.N,GND*%
X124040000Y-69268500D02*
X128620000Y-64688500D01*
X124040000Y-84920000D02*
X124040000Y-71103500D01*
X124040000Y-71460000D02*
X124000000Y-71500000D01*
X124040000Y-71103500D02*
X124040000Y-71460000D01*
X87000000Y-84920000D02*
X85540000Y-84920000D01*
X105040000Y-84920000D02*
X87000000Y-84920000D01*
X105040000Y-84920000D02*
X124040000Y-84920000D01*
X124040000Y-71103500D02*
X124040000Y-69268500D01*
X87000000Y-84920000D02*
X66040000Y-84920000D01*
%TO.N,Net-(U1-GPIO26{slash}ADC0{slash}A0)*%
X98690000Y-87460000D02*
X82215184Y-87460000D01*
X77324184Y-92351000D02*
X59072530Y-92351000D01*
X57219000Y-90497470D02*
X57219000Y-87382586D01*
X57219000Y-87382586D02*
X82453086Y-62148500D01*
X82453086Y-62148500D02*
X114380000Y-62148500D01*
X59072530Y-92351000D02*
X57219000Y-90497470D01*
X82215184Y-87460000D02*
X77324184Y-92351000D01*
%TO.N,Net-(U1-GPIO29{slash}ADC3{slash}A3)*%
X84959686Y-86321000D02*
X84139000Y-85500314D01*
X67441000Y-85500314D02*
X66620314Y-86321000D01*
X64639000Y-84339686D02*
X79210186Y-69768500D01*
X86120314Y-86321000D02*
X84959686Y-86321000D01*
X98711628Y-85500314D02*
X86941000Y-85500314D01*
X66620314Y-86321000D02*
X65459686Y-86321000D01*
X79210186Y-69768500D02*
X114380000Y-69768500D01*
X117690000Y-87460000D02*
X100671314Y-87460000D01*
X86941000Y-85500314D02*
X86120314Y-86321000D01*
X64639000Y-85500314D02*
X64639000Y-84339686D01*
X65459686Y-86321000D02*
X64639000Y-85500314D01*
X100671314Y-87460000D02*
X98711628Y-85500314D01*
X84139000Y-85500314D02*
X67441000Y-85500314D01*
%TO.N,Net-(U1-GPIO28{slash}ADC2{slash}A2)*%
X79921500Y-67228500D02*
X113545000Y-67228500D01*
X59690000Y-87460000D02*
X79921500Y-67228500D01*
%TD*%
M02*
