%TF.GenerationSoftware,KiCad,Pcbnew,9.0.2*%
%TF.CreationDate,2025-06-28T12:52:55-04:00*%
%TF.ProjectId,Kicadproject1,4b696361-6470-4726-9f6a-656374312e6b,rev?*%
%TF.SameCoordinates,Original*%
%TF.FileFunction,Copper,L1,Top*%
%TF.FilePolarity,Positive*%
%FSLAX46Y46*%
G04 Gerber Fmt 4.6, Leading zero omitted, Abs format (unit mm)*
G04 Created by KiCad (PCBNEW 9.0.2) date 2025-06-28 12:52:55*
%MOMM*%
%LPD*%
G01*
G04 APERTURE LIST*
G04 Aperture macros list*
%AMRoundRect*
0 Rectangle with rounded corners*
0 $1 Rounding radius*
0 $2 $3 $4 $5 $6 $7 $8 $9 X,Y pos of 4 corners*
0 Add a 4 corners polygon primitive as box body*
4,1,4,$2,$3,$4,$5,$6,$7,$8,$9,$2,$3,0*
0 Add four circle primitives for the rounded corners*
1,1,$1+$1,$2,$3*
1,1,$1+$1,$4,$5*
1,1,$1+$1,$6,$7*
1,1,$1+$1,$8,$9*
0 Add four rect primitives between the rounded corners*
20,1,$1+$1,$2,$3,$4,$5,0*
20,1,$1+$1,$4,$5,$6,$7,0*
20,1,$1+$1,$6,$7,$8,$9,0*
20,1,$1+$1,$8,$9,$2,$3,0*%
G04 Aperture macros list end*
%ADD10C,0.150000*%
%TA.AperFunction,NonConductor*%
%ADD11C,0.150000*%
%TD*%
%TA.AperFunction,NonConductor*%
%ADD12C,0.200000*%
%TD*%
%TA.AperFunction,ComponentPad*%
%ADD13C,2.200000*%
%TD*%
%TA.AperFunction,SMDPad,CuDef*%
%ADD14RoundRect,0.152400X1.063600X0.609600X-1.063600X0.609600X-1.063600X-0.609600X1.063600X-0.609600X0*%
%TD*%
%TA.AperFunction,ComponentPad*%
%ADD15C,1.524000*%
%TD*%
%TA.AperFunction,SMDPad,CuDef*%
%ADD16RoundRect,0.152400X-1.063600X-0.609600X1.063600X-0.609600X1.063600X0.609600X-1.063600X0.609600X0*%
%TD*%
%TA.AperFunction,Conductor*%
%ADD17C,0.200000*%
%TD*%
G04 APERTURE END LIST*
D10*
G36*
X81567847Y-102990000D02*
G01*
X81211191Y-101062191D01*
X80555399Y-103036894D01*
X80453000Y-103036894D01*
X79778707Y-101062191D01*
X79430294Y-102990000D01*
X79041032Y-102990000D01*
X79602486Y-99988743D01*
X79788965Y-99988743D01*
X80504291Y-102178686D01*
X81164113Y-99988743D01*
X81348578Y-99988743D01*
X81957292Y-102990000D01*
X81567847Y-102990000D01*
G37*
G36*
X82623342Y-100797676D02*
G01*
X82623342Y-102199569D01*
X82638263Y-102369699D01*
X82678197Y-102495444D01*
X82738766Y-102587331D01*
X82819868Y-102652487D01*
X82925674Y-102693642D01*
X83063895Y-102708632D01*
X83188931Y-102696271D01*
X83305637Y-102659613D01*
X83416338Y-102597807D01*
X83514396Y-102516525D01*
X83583336Y-102431314D01*
X83627547Y-102341168D01*
X83627547Y-100797676D01*
X84016992Y-100797676D01*
X84016992Y-102990000D01*
X83627547Y-102990000D01*
X83627547Y-102692145D01*
X83574448Y-102769939D01*
X83489540Y-102848747D01*
X83364131Y-102929183D01*
X83229230Y-102990542D01*
X83101175Y-103025571D01*
X82977983Y-103036894D01*
X82798839Y-103022373D01*
X82650645Y-102981701D01*
X82527629Y-102917455D01*
X82425505Y-102829715D01*
X82345291Y-102721367D01*
X82285661Y-102590332D01*
X82247555Y-102432015D01*
X82233897Y-102240601D01*
X82233897Y-100797676D01*
X82623342Y-100797676D01*
G37*
G36*
X85967515Y-102990000D02*
G01*
X85278934Y-101891273D01*
X84938764Y-102239685D01*
X84938764Y-102990000D01*
X84549319Y-102990000D01*
X84549319Y-99894954D01*
X84938764Y-99894954D01*
X84938764Y-101817634D01*
X85779021Y-100797676D01*
X86233862Y-100797676D01*
X85530992Y-101628956D01*
X86389750Y-102990000D01*
X85967515Y-102990000D01*
G37*
G36*
X88018056Y-102990000D02*
G01*
X88018056Y-101608623D01*
X88003155Y-101448542D01*
X87961952Y-101321571D01*
X87897156Y-101220643D01*
X87807831Y-101143341D01*
X87696669Y-101095922D01*
X87556987Y-101079043D01*
X87418036Y-101099040D01*
X87273054Y-101162208D01*
X87144533Y-101254803D01*
X87054884Y-101356198D01*
X87054884Y-102990000D01*
X86665439Y-102990000D01*
X86665439Y-99894954D01*
X87054884Y-99894954D01*
X87054884Y-101033981D01*
X87114070Y-100960990D01*
X87196190Y-100893622D01*
X87305844Y-100831931D01*
X87482727Y-100770888D01*
X87663599Y-100750781D01*
X87834437Y-100766294D01*
X87979309Y-100810379D01*
X88103227Y-100881429D01*
X88209665Y-100980675D01*
X88292889Y-101100097D01*
X88354486Y-101241568D01*
X88393586Y-101409317D01*
X88407501Y-101608623D01*
X88407501Y-102990000D01*
X88018056Y-102990000D01*
G37*
G36*
X90078590Y-100769245D02*
G01*
X90274756Y-100821325D01*
X90440739Y-100904095D01*
X90581507Y-101017494D01*
X90692515Y-101153254D01*
X90772499Y-101309076D01*
X90822183Y-101488845D01*
X90839610Y-101697833D01*
X90831652Y-101825083D01*
X90808836Y-101937801D01*
X89226875Y-101937801D01*
X89241743Y-102129306D01*
X89283346Y-102287868D01*
X89348868Y-102419493D01*
X89437901Y-102528747D01*
X89571754Y-102627428D01*
X89729354Y-102687565D01*
X89917472Y-102708632D01*
X90082245Y-102695701D01*
X90228038Y-102658456D01*
X90358091Y-102598026D01*
X90474895Y-102513909D01*
X90638843Y-102795094D01*
X90532578Y-102874541D01*
X90362238Y-102950799D01*
X90204225Y-102997776D01*
X90031372Y-103026853D01*
X89841634Y-103036894D01*
X89639740Y-103018770D01*
X89457777Y-102965955D01*
X89291744Y-102878791D01*
X89138764Y-102754977D01*
X89000468Y-102590028D01*
X88900761Y-102399438D01*
X88838723Y-102178204D01*
X88816913Y-101919483D01*
X88831316Y-101701093D01*
X88841492Y-101653503D01*
X89237133Y-101653503D01*
X90452363Y-101653503D01*
X90435256Y-101499676D01*
X90386027Y-101368094D01*
X90304719Y-101253799D01*
X90186684Y-101158352D01*
X90042424Y-101099797D01*
X89864166Y-101079043D01*
X89697556Y-101098610D01*
X89553839Y-101155271D01*
X89427643Y-101249769D01*
X89331952Y-101366550D01*
X89268836Y-101499768D01*
X89237133Y-101653503D01*
X88841492Y-101653503D01*
X88872643Y-101507819D01*
X88939064Y-101335948D01*
X89030138Y-101182420D01*
X89146824Y-101044972D01*
X89303699Y-100914535D01*
X89470512Y-100823730D01*
X89649916Y-100769299D01*
X89845664Y-100750781D01*
X90078590Y-100769245D01*
G37*
G36*
X92442088Y-101167154D02*
G01*
X92311683Y-101100081D01*
X92185999Y-101079043D01*
X92056676Y-101099300D01*
X91937557Y-101160699D01*
X91824214Y-101269919D01*
X91739079Y-101404253D01*
X91687465Y-101555942D01*
X91669609Y-101729706D01*
X91669609Y-102990000D01*
X91280163Y-102990000D01*
X91280163Y-100797676D01*
X91669609Y-100797676D01*
X91669609Y-101142791D01*
X91766912Y-100997021D01*
X91876998Y-100888901D01*
X92000877Y-100813023D01*
X92141379Y-100766813D01*
X92302869Y-100750781D01*
X92418245Y-100758585D01*
X92604021Y-100787784D01*
X92442088Y-101167154D01*
G37*
G36*
X93479448Y-99965296D02*
G01*
X93572470Y-99982951D01*
X93650540Y-100035821D01*
X93703649Y-100113446D01*
X93721249Y-100204532D01*
X93703548Y-100297508D01*
X93650540Y-100375441D01*
X93572470Y-100428311D01*
X93479448Y-100445966D01*
X93386584Y-100428282D01*
X93309272Y-100375441D01*
X93257123Y-100297594D01*
X93239663Y-100204532D01*
X93257151Y-100111817D01*
X93309272Y-100034905D01*
X93386512Y-99982780D01*
X93479448Y-99965296D01*
G37*
G36*
X92639192Y-103845826D02*
G01*
X92639192Y-103497048D01*
X92907321Y-103479578D01*
X93081683Y-103435862D01*
X93189471Y-103375415D01*
X93268084Y-103283797D01*
X93318998Y-103155044D01*
X93338032Y-102976261D01*
X93338032Y-101125938D01*
X92901509Y-101125938D01*
X92901509Y-100797676D01*
X93727477Y-100797676D01*
X93727477Y-102968750D01*
X93708429Y-103193258D01*
X93655709Y-103373284D01*
X93573218Y-103517780D01*
X93460947Y-103633152D01*
X93324694Y-103718963D01*
X93148754Y-103785516D01*
X92923909Y-103829607D01*
X92639192Y-103845826D01*
G37*
G36*
X95535953Y-100769245D02*
G01*
X95732118Y-100821325D01*
X95898101Y-100904095D01*
X96038869Y-101017494D01*
X96149878Y-101153254D01*
X96229862Y-101309076D01*
X96279545Y-101488845D01*
X96296973Y-101697833D01*
X96289014Y-101825083D01*
X96266198Y-101937801D01*
X94684237Y-101937801D01*
X94699105Y-102129306D01*
X94740708Y-102287868D01*
X94806231Y-102419493D01*
X94895263Y-102528747D01*
X95029116Y-102627428D01*
X95186716Y-102687565D01*
X95374834Y-102708632D01*
X95539607Y-102695701D01*
X95685400Y-102658456D01*
X95815454Y-102598026D01*
X95932257Y-102513909D01*
X96096205Y-102795094D01*
X95989941Y-102874541D01*
X95819600Y-102950799D01*
X95661587Y-102997776D01*
X95488734Y-103026853D01*
X95298996Y-103036894D01*
X95097102Y-103018770D01*
X94915139Y-102965955D01*
X94749106Y-102878791D01*
X94596127Y-102754977D01*
X94457830Y-102590028D01*
X94358123Y-102399438D01*
X94296085Y-102178204D01*
X94274275Y-101919483D01*
X94288679Y-101701093D01*
X94298855Y-101653503D01*
X94694495Y-101653503D01*
X95909726Y-101653503D01*
X95892618Y-101499676D01*
X95843389Y-101368094D01*
X95762081Y-101253799D01*
X95644047Y-101158352D01*
X95499786Y-101099797D01*
X95321528Y-101079043D01*
X95154919Y-101098610D01*
X95011201Y-101155271D01*
X94885005Y-101249769D01*
X94789314Y-101366550D01*
X94726198Y-101499768D01*
X94694495Y-101653503D01*
X94298855Y-101653503D01*
X94330005Y-101507819D01*
X94396427Y-101335948D01*
X94487500Y-101182420D01*
X94604187Y-101044972D01*
X94761061Y-100914535D01*
X94927874Y-100823730D01*
X95107279Y-100769299D01*
X95303026Y-100750781D01*
X95535953Y-100769245D01*
G37*
G36*
X97824997Y-100769245D02*
G01*
X98021162Y-100821325D01*
X98187145Y-100904095D01*
X98327913Y-101017494D01*
X98438922Y-101153254D01*
X98518906Y-101309076D01*
X98568589Y-101488845D01*
X98586017Y-101697833D01*
X98578058Y-101825083D01*
X98555242Y-101937801D01*
X96973281Y-101937801D01*
X96988149Y-102129306D01*
X97029752Y-102287868D01*
X97095275Y-102419493D01*
X97184307Y-102528747D01*
X97318160Y-102627428D01*
X97475760Y-102687565D01*
X97663878Y-102708632D01*
X97828651Y-102695701D01*
X97974444Y-102658456D01*
X98104498Y-102598026D01*
X98221301Y-102513909D01*
X98385249Y-102795094D01*
X98278985Y-102874541D01*
X98108644Y-102950799D01*
X97950631Y-102997776D01*
X97777778Y-103026853D01*
X97588040Y-103036894D01*
X97386146Y-103018770D01*
X97204183Y-102965955D01*
X97038150Y-102878791D01*
X96885170Y-102754977D01*
X96746874Y-102590028D01*
X96647167Y-102399438D01*
X96585129Y-102178204D01*
X96563319Y-101919483D01*
X96577722Y-101701093D01*
X96587898Y-101653503D01*
X96983539Y-101653503D01*
X98198770Y-101653503D01*
X98181662Y-101499676D01*
X98132433Y-101368094D01*
X98051125Y-101253799D01*
X97933091Y-101158352D01*
X97788830Y-101099797D01*
X97610572Y-101079043D01*
X97443962Y-101098610D01*
X97300245Y-101155271D01*
X97174049Y-101249769D01*
X97078358Y-101366550D01*
X97015242Y-101499768D01*
X96983539Y-101653503D01*
X96587898Y-101653503D01*
X96619049Y-101507819D01*
X96685471Y-101335948D01*
X96776544Y-101182420D01*
X96893230Y-101044972D01*
X97050105Y-100914535D01*
X97216918Y-100823730D01*
X97396323Y-100769299D01*
X97592070Y-100750781D01*
X97824997Y-100769245D01*
G37*
G36*
X100346397Y-102990000D02*
G01*
X100346397Y-101711205D01*
X100331485Y-101477064D01*
X100293726Y-101320317D01*
X100240884Y-101219727D01*
X100160118Y-101144959D01*
X100046175Y-101096949D01*
X99887342Y-101079043D01*
X99754965Y-101097948D01*
X99608539Y-101159094D01*
X99477676Y-101250450D01*
X99385240Y-101356198D01*
X99385240Y-102990000D01*
X98995795Y-102990000D01*
X98995795Y-100797676D01*
X99262325Y-100797676D01*
X99385240Y-101075013D01*
X99471192Y-100959242D01*
X99574158Y-100870386D01*
X99696243Y-100805785D01*
X99841275Y-100765188D01*
X100014471Y-100750781D01*
X100209631Y-100769483D01*
X100365591Y-100821416D01*
X100490776Y-100903622D01*
X100590615Y-101017754D01*
X100666833Y-101169821D01*
X100717205Y-101369466D01*
X100735842Y-101629139D01*
X100735842Y-102990000D01*
X100346397Y-102990000D01*
G37*
G36*
X101692419Y-99965296D02*
G01*
X101785441Y-99982951D01*
X101863511Y-100035821D01*
X101916620Y-100113446D01*
X101934220Y-100204532D01*
X101916519Y-100297508D01*
X101863511Y-100375441D01*
X101785441Y-100428311D01*
X101692419Y-100445966D01*
X101601130Y-100428403D01*
X101523342Y-100375441D01*
X101470334Y-100297508D01*
X101452634Y-100204532D01*
X101470122Y-100111817D01*
X101522243Y-100034905D01*
X101599483Y-99982780D01*
X101692419Y-99965296D01*
G37*
G36*
X101479378Y-102990000D02*
G01*
X101479378Y-101125938D01*
X101178044Y-101125938D01*
X101178044Y-100797676D01*
X101868640Y-100797676D01*
X101868640Y-102990000D01*
X101479378Y-102990000D01*
G37*
G36*
X102855443Y-100797676D02*
G01*
X102855443Y-102199569D01*
X102870364Y-102369699D01*
X102910297Y-102495444D01*
X102970867Y-102587331D01*
X103051968Y-102652487D01*
X103157774Y-102693642D01*
X103295996Y-102708632D01*
X103421032Y-102696271D01*
X103537737Y-102659613D01*
X103648438Y-102597807D01*
X103746497Y-102516525D01*
X103815437Y-102431314D01*
X103859647Y-102341168D01*
X103859647Y-100797676D01*
X104249092Y-100797676D01*
X104249092Y-102990000D01*
X103859647Y-102990000D01*
X103859647Y-102692145D01*
X103806548Y-102769939D01*
X103721640Y-102848747D01*
X103596231Y-102929183D01*
X103461330Y-102990542D01*
X103333276Y-103025571D01*
X103210083Y-103036894D01*
X103030940Y-103022373D01*
X102882746Y-102981701D01*
X102759730Y-102917455D01*
X102657606Y-102829715D01*
X102577391Y-102721367D01*
X102517762Y-102590332D01*
X102479656Y-102432015D01*
X102465997Y-102240601D01*
X102465997Y-100797676D01*
X102855443Y-100797676D01*
G37*
G36*
X104637988Y-102864703D02*
G01*
X104775375Y-102495408D01*
X105001564Y-102625176D01*
X105171918Y-102690139D01*
X105300008Y-102708632D01*
X105441232Y-102693857D01*
X105538939Y-102655023D01*
X105605009Y-102596091D01*
X105645788Y-102514801D01*
X105660694Y-102403267D01*
X105642898Y-102307586D01*
X105586987Y-102215245D01*
X105482628Y-102122374D01*
X105312281Y-102028110D01*
X105067076Y-101908868D01*
X104950497Y-101840898D01*
X104862792Y-101772123D01*
X104788564Y-101695818D01*
X104728167Y-101611049D01*
X104686165Y-101523077D01*
X104661036Y-101429013D01*
X104652459Y-101326523D01*
X104665516Y-101194645D01*
X104702785Y-101082559D01*
X104763405Y-100986213D01*
X104849197Y-100903005D01*
X104987848Y-100821012D01*
X105156776Y-100769286D01*
X105363572Y-100750781D01*
X105521137Y-100764836D01*
X105719557Y-100812267D01*
X105968073Y-100902456D01*
X105857431Y-101263508D01*
X105695895Y-101157400D01*
X105542114Y-101098084D01*
X105392149Y-101079043D01*
X105261052Y-101096356D01*
X105157493Y-101145172D01*
X105103174Y-101194774D01*
X105072498Y-101249649D01*
X105062238Y-101312234D01*
X105076544Y-101409954D01*
X105118595Y-101494118D01*
X105191176Y-101568488D01*
X105302023Y-101634085D01*
X105580643Y-101761580D01*
X105745854Y-101849611D01*
X105867467Y-101938902D01*
X105953602Y-102029209D01*
X106017206Y-102134736D01*
X106056601Y-102258633D01*
X106070472Y-102405465D01*
X106056652Y-102549954D01*
X106017258Y-102672777D01*
X105953397Y-102778262D01*
X105863476Y-102869282D01*
X105756714Y-102939146D01*
X105628443Y-102991423D01*
X105474486Y-103024905D01*
X105289750Y-103036894D01*
X105063286Y-103017746D01*
X104847045Y-102960696D01*
X104637988Y-102864703D01*
G37*
D11*
X117741541Y-61869819D02*
X118408207Y-62869819D01*
X118408207Y-61869819D02*
X117741541Y-62869819D01*
X118789160Y-62869819D02*
X118789160Y-61869819D01*
X119217731Y-62584104D02*
X119693921Y-62584104D01*
X119122493Y-62869819D02*
X119455826Y-61869819D01*
X119455826Y-61869819D02*
X119789159Y-62869819D01*
X120312969Y-61869819D02*
X120503445Y-61869819D01*
X120503445Y-61869819D02*
X120598683Y-61917438D01*
X120598683Y-61917438D02*
X120693921Y-62012676D01*
X120693921Y-62012676D02*
X120741540Y-62203152D01*
X120741540Y-62203152D02*
X120741540Y-62536485D01*
X120741540Y-62536485D02*
X120693921Y-62726961D01*
X120693921Y-62726961D02*
X120598683Y-62822200D01*
X120598683Y-62822200D02*
X120503445Y-62869819D01*
X120503445Y-62869819D02*
X120312969Y-62869819D01*
X120312969Y-62869819D02*
X120217731Y-62822200D01*
X120217731Y-62822200D02*
X120122493Y-62726961D01*
X120122493Y-62726961D02*
X120074874Y-62536485D01*
X120074874Y-62536485D02*
X120074874Y-62203152D01*
X120074874Y-62203152D02*
X120122493Y-62012676D01*
X120122493Y-62012676D02*
X120217731Y-61917438D01*
X120217731Y-61917438D02*
X120312969Y-61869819D01*
X121932017Y-62869819D02*
X121932017Y-61869819D01*
X121932017Y-62346009D02*
X122503445Y-62346009D01*
X122503445Y-62869819D02*
X122503445Y-61869819D01*
X122979636Y-62346009D02*
X123312969Y-62346009D01*
X123455826Y-62869819D02*
X122979636Y-62869819D01*
X122979636Y-62869819D02*
X122979636Y-61869819D01*
X122979636Y-61869819D02*
X123455826Y-61869819D01*
X124455826Y-62869819D02*
X124122493Y-62393628D01*
X123884398Y-62869819D02*
X123884398Y-61869819D01*
X123884398Y-61869819D02*
X124265350Y-61869819D01*
X124265350Y-61869819D02*
X124360588Y-61917438D01*
X124360588Y-61917438D02*
X124408207Y-61965057D01*
X124408207Y-61965057D02*
X124455826Y-62060295D01*
X124455826Y-62060295D02*
X124455826Y-62203152D01*
X124455826Y-62203152D02*
X124408207Y-62298390D01*
X124408207Y-62298390D02*
X124360588Y-62346009D01*
X124360588Y-62346009D02*
X124265350Y-62393628D01*
X124265350Y-62393628D02*
X123884398Y-62393628D01*
X124884398Y-62346009D02*
X125217731Y-62346009D01*
X125360588Y-62869819D02*
X124884398Y-62869819D01*
X124884398Y-62869819D02*
X124884398Y-61869819D01*
X124884398Y-61869819D02*
X125360588Y-61869819D01*
X125789160Y-62774580D02*
X125836779Y-62822200D01*
X125836779Y-62822200D02*
X125789160Y-62869819D01*
X125789160Y-62869819D02*
X125741541Y-62822200D01*
X125741541Y-62822200D02*
X125789160Y-62774580D01*
X125789160Y-62774580D02*
X125789160Y-62869819D01*
X125789160Y-62488866D02*
X125741541Y-61917438D01*
X125741541Y-61917438D02*
X125789160Y-61869819D01*
X125789160Y-61869819D02*
X125836779Y-61917438D01*
X125836779Y-61917438D02*
X125789160Y-62488866D01*
X125789160Y-62488866D02*
X125789160Y-61869819D01*
D12*
X107000000Y-123000000D02*
X153500000Y-123000000D01*
X153500000Y-133000000D01*
X107000000Y-133000000D01*
X107000000Y-123000000D01*
X116500000Y-111500000D02*
X136000000Y-111500000D01*
X116500000Y-111500000D01*
D13*
%TO.P,SW4,2,2*%
%TO.N,Net-(U1-GPIO28{slash}ADC2{slash}A2)*%
X59690000Y-87460000D03*
%TO.P,SW4,1,1*%
%TO.N,GND*%
X66040000Y-84920000D03*
%TD*%
D14*
%TO.P,U1,1,GPIO26/ADC0/A0*%
%TO.N,Net-(U1-GPIO26{slash}ADC0{slash}A0)*%
X112545000Y-62148500D03*
D15*
X113380000Y-62148500D03*
D14*
%TO.P,U1,2,GPIO27/ADC1/A1*%
%TO.N,Net-(U1-GPIO27{slash}ADC1{slash}A1)*%
X112545000Y-64688500D03*
D15*
X113380000Y-64688500D03*
D14*
%TO.P,U1,3,GPIO28/ADC2/A2*%
%TO.N,Net-(U1-GPIO28{slash}ADC2{slash}A2)*%
X112545000Y-67228500D03*
D15*
X113380000Y-67228500D03*
D14*
%TO.P,U1,4,GPIO29/ADC3/A3*%
%TO.N,Net-(U1-GPIO29{slash}ADC3{slash}A3)*%
X112545000Y-69768500D03*
D15*
X113380000Y-69768500D03*
D14*
%TO.P,U1,5,GPIO6/SDA*%
%TO.N,unconnected-(U1-GPIO6{slash}SDA-Pad5)*%
X112545000Y-72308500D03*
D15*
X113380000Y-72308500D03*
D14*
%TO.P,U1,6,GPIO7/SCL*%
%TO.N,unconnected-(U1-GPIO7{slash}SCL-Pad6)*%
X112545000Y-74848500D03*
D15*
X113380000Y-74848500D03*
D14*
%TO.P,U1,7,GPIO0/TX*%
%TO.N,unconnected-(U1-GPIO0{slash}TX-Pad7)*%
X112545000Y-77388500D03*
D15*
X113380000Y-77388500D03*
%TO.P,U1,8,GPIO1/RX*%
%TO.N,unconnected-(U1-GPIO1{slash}RX-Pad8)*%
X128620000Y-77388500D03*
D16*
X129455000Y-77388500D03*
D15*
%TO.P,U1,9,GPIO2/SCK*%
%TO.N,unconnected-(U1-GPIO2{slash}SCK-Pad9)*%
X128620000Y-74848500D03*
D16*
X129455000Y-74848500D03*
D15*
%TO.P,U1,10,GPIO4/MISO*%
%TO.N,unconnected-(U1-GPIO4{slash}MISO-Pad10)*%
X128620000Y-72308500D03*
D16*
X129455000Y-72308500D03*
D15*
%TO.P,U1,11,GPIO3/MOSI*%
%TO.N,unconnected-(U1-GPIO3{slash}MOSI-Pad11)*%
X128620000Y-69768500D03*
D16*
X129455000Y-69768500D03*
D15*
%TO.P,U1,12,3V3*%
%TO.N,unconnected-(U1-3V3-Pad12)*%
X128620000Y-67228500D03*
D16*
X129455000Y-67228500D03*
D15*
%TO.P,U1,13,GND*%
%TO.N,GND*%
X128620000Y-64688500D03*
D16*
X129455000Y-64688500D03*
D15*
%TO.P,U1,14,VBUS*%
%TO.N,+5V*%
X128620000Y-62148500D03*
D16*
X129455000Y-62148500D03*
%TD*%
D13*
%TO.P,SW3,1,1*%
%TO.N,GND*%
X124040000Y-84920000D03*
%TO.P,SW3,2,2*%
%TO.N,Net-(U1-GPIO29{slash}ADC3{slash}A3)*%
X117690000Y-87460000D03*
%TD*%
%TO.P,SW2,1,1*%
%TO.N,GND*%
X105040000Y-84920000D03*
%TO.P,SW2,2,2*%
%TO.N,Net-(U1-GPIO26{slash}ADC0{slash}A0)*%
X98690000Y-87460000D03*
%TD*%
%TO.P,SW1,1,1*%
%TO.N,GND*%
X85540000Y-84920000D03*
%TO.P,SW1,2,2*%
%TO.N,Net-(U1-GPIO27{slash}ADC1{slash}A1)*%
X79190000Y-87460000D03*
%TD*%
D17*
%TO.N,GND*%
X124040000Y-69268500D02*
X128620000Y-64688500D01*
X124040000Y-71103500D02*
X124040000Y-69268500D01*
X124040000Y-71460000D02*
X124000000Y-71500000D01*
X124040000Y-71103500D02*
X124040000Y-71460000D01*
%TO.N,Net-(U1-GPIO29{slash}ADC3{slash}A3)*%
X79210186Y-69768500D02*
X114380000Y-69768500D01*
X64639000Y-84339686D02*
X79210186Y-69768500D01*
X64639000Y-85500314D02*
X64639000Y-84339686D01*
X65459686Y-86321000D02*
X64639000Y-85500314D01*
X66620314Y-86321000D02*
X65459686Y-86321000D01*
X67441000Y-85500314D02*
X66620314Y-86321000D01*
X84139000Y-85500314D02*
X67441000Y-85500314D01*
X84959686Y-86321000D02*
X84139000Y-85500314D01*
X86120314Y-86321000D02*
X84959686Y-86321000D01*
X86941000Y-85500314D02*
X86120314Y-86321000D01*
X98711628Y-85500314D02*
X86941000Y-85500314D01*
X100671314Y-87460000D02*
X98711628Y-85500314D01*
X117690000Y-87460000D02*
X100671314Y-87460000D01*
%TO.N,Net-(U1-GPIO26{slash}ADC0{slash}A0)*%
X57219000Y-87382586D02*
X82453086Y-62148500D01*
X57219000Y-90497470D02*
X57219000Y-87382586D01*
X59072530Y-92351000D02*
X57219000Y-90497470D01*
X82453086Y-62148500D02*
X114380000Y-62148500D01*
X82215184Y-87460000D02*
X77324184Y-92351000D01*
X98690000Y-87460000D02*
X82215184Y-87460000D01*
X77324184Y-92351000D02*
X59072530Y-92351000D01*
%TO.N,Net-(U1-GPIO27{slash}ADC1{slash}A1)*%
X58289000Y-86879686D02*
X80480186Y-64688500D01*
X80480186Y-64688500D02*
X113545000Y-64688500D01*
X58289000Y-88040314D02*
X58289000Y-86879686D01*
X59109686Y-88861000D02*
X58289000Y-88040314D01*
X60270314Y-88861000D02*
X59109686Y-88861000D01*
X79190000Y-87460000D02*
X61671314Y-87460000D01*
X61671314Y-87460000D02*
X60270314Y-88861000D01*
%TO.N,Net-(U1-GPIO28{slash}ADC2{slash}A2)*%
X79921500Y-67228500D02*
X113545000Y-67228500D01*
X59690000Y-87460000D02*
X79921500Y-67228500D01*
%TO.N,*%
X64500000Y-90000000D02*
X64000000Y-90000000D01*
%TO.N,GND*%
X87000000Y-84920000D02*
X85540000Y-84920000D01*
X87000000Y-84920000D02*
X66040000Y-84920000D01*
X105040000Y-84920000D02*
X87000000Y-84920000D01*
X124040000Y-84920000D02*
X124040000Y-71103500D01*
X105040000Y-84920000D02*
X124040000Y-84920000D01*
%TD*%
M02*
