%TF.GenerationSoftware,KiCad,Pcbnew,9.0.2*%
%TF.CreationDate,2025-06-28T12:52:55-04:00*%
%TF.ProjectId,Kicadproject1,4b696361-6470-4726-9f6a-656374312e6b,rev?*%
%TF.SameCoordinates,Original*%
%TF.FileFunction,Soldermask,Top*%
%TF.FilePolarity,Negative*%
%FSLAX46Y46*%
G04 Gerber Fmt 4.6, Leading zero omitted, Abs format (unit mm)*
G04 Created by KiCad (PCBNEW 9.0.2) date 2025-06-28 12:52:55*
%MOMM*%
%LPD*%
G01*
G04 APERTURE LIST*
G04 Aperture macros list*
%AMRoundRect*
0 Rectangle with rounded corners*
0 $1 Rounding radius*
0 $2 $3 $4 $5 $6 $7 $8 $9 X,Y pos of 4 corners*
0 Add a 4 corners polygon primitive as box body*
4,1,4,$2,$3,$4,$5,$6,$7,$8,$9,$2,$3,0*
0 Add four circle primitives for the rounded corners*
1,1,$1+$1,$2,$3*
1,1,$1+$1,$4,$5*
1,1,$1+$1,$6,$7*
1,1,$1+$1,$8,$9*
0 Add four rect primitives between the rounded corners*
20,1,$1+$1,$2,$3,$4,$5,0*
20,1,$1+$1,$4,$5,$6,$7,0*
20,1,$1+$1,$6,$7,$8,$9,0*
20,1,$1+$1,$8,$9,$2,$3,0*%
G04 Aperture macros list end*
%ADD10C,2.200000*%
%ADD11C,1.700000*%
%ADD12C,4.000000*%
%ADD13RoundRect,0.152400X1.063600X0.609600X-1.063600X0.609600X-1.063600X-0.609600X1.063600X-0.609600X0*%
%ADD14C,1.524000*%
%ADD15RoundRect,0.152400X-1.063600X-0.609600X1.063600X-0.609600X1.063600X0.609600X-1.063600X0.609600X0*%
G04 APERTURE END LIST*
D10*
%TO.C,SW4*%
X59690000Y-87460000D03*
X66040000Y-84920000D03*
D11*
X68580000Y-90000000D03*
D12*
X63500000Y-90000000D03*
D11*
X58420000Y-90000000D03*
%TD*%
D13*
%TO.C,U1*%
X112545000Y-62148500D03*
D14*
X113380000Y-62148500D03*
D13*
X112545000Y-64688500D03*
D14*
X113380000Y-64688500D03*
D13*
X112545000Y-67228500D03*
D14*
X113380000Y-67228500D03*
D13*
X112545000Y-69768500D03*
D14*
X113380000Y-69768500D03*
D13*
X112545000Y-72308500D03*
D14*
X113380000Y-72308500D03*
D13*
X112545000Y-74848500D03*
D14*
X113380000Y-74848500D03*
D13*
X112545000Y-77388500D03*
D14*
X113380000Y-77388500D03*
X128620000Y-77388500D03*
D15*
X129455000Y-77388500D03*
D14*
X128620000Y-74848500D03*
D15*
X129455000Y-74848500D03*
D14*
X128620000Y-72308500D03*
D15*
X129455000Y-72308500D03*
D14*
X128620000Y-69768500D03*
D15*
X129455000Y-69768500D03*
D14*
X128620000Y-67228500D03*
D15*
X129455000Y-67228500D03*
D14*
X128620000Y-64688500D03*
D15*
X129455000Y-64688500D03*
D14*
X128620000Y-62148500D03*
D15*
X129455000Y-62148500D03*
%TD*%
D11*
%TO.C,SW3*%
X116420000Y-90000000D03*
D12*
X121500000Y-90000000D03*
D11*
X126580000Y-90000000D03*
D10*
X124040000Y-84920000D03*
X117690000Y-87460000D03*
%TD*%
D11*
%TO.C,SW2*%
X97420000Y-90000000D03*
D12*
X102500000Y-90000000D03*
D11*
X107580000Y-90000000D03*
D10*
X105040000Y-84920000D03*
X98690000Y-87460000D03*
%TD*%
D11*
%TO.C,SW1*%
X77920000Y-90000000D03*
D12*
X83000000Y-90000000D03*
D11*
X88080000Y-90000000D03*
D10*
X85540000Y-84920000D03*
X79190000Y-87460000D03*
%TD*%
M02*
